<svg width="91" height="84" viewBox="0 0 91 84" fill="none" xmlns="http://www.w3.org/2000/svg">
<path d="M45.5249 0C18.407 0 0 13.8263 0 35.3357C0 48.5689 5.50173 59.1735 16.1304 65.9959C16.8393 66.4513 17.6756 66.5204 17.3617 67.831C16.0941 73.1309 13.8902 82.5748 13.8902 82.5748C13.7969 82.9749 13.947 83.3924 14.273 83.6424C14.5987 83.8906 15.0403 83.9269 15.4025 83.7321C15.4025 83.7321 30.9586 74.514 33.0334 73.362C37.8726 70.5956 42.0411 70.0593 45.1713 70.0593C66.6791 70.0593 90.6479 61.4535 90.6479 35.1047C90.6479 14.6696 74.1779 0 45.5249 0Z" fill="#F9F9F9"/>
<path d="M17.6691 43.1441H28.8884V45.6968H14.531V22.0226H17.6691V43.1441Z" fill="black"/>
<path d="M35.7988 45.6968H32.6769V22.0226H35.7988V45.6968Z" fill="black"/>
<path d="M59.7169 45.6968H56.5787L44.6603 27.4534V45.6968H41.5222V22.0226H44.6603L56.6112 40.3474V22.0226H59.7169V45.6968Z" fill="black"/>
<path d="M78.6432 34.754H68.3833V43.1441H80.3017V45.6968H65.2614V22.0226H80.1391V24.5917H68.3833V32.2012H78.6432V34.754Z" fill="black"/>
</svg>
